<mxfile host="app.diagrams.net" modified="2024-04-21T18:14:11.415Z" agent="Mozilla/5.0 (Windows NT 10.0; Win64; x64) AppleWebKit/537.36 (KHTML, like Gecko) Chrome/124.0.0.0 Safari/537.36" etag="pmaEJ-SXbIbuRUPw9L1B" version="24.2.7" type="device">
  <diagram name="Page-1" id="k8sFk0txAlxOJYZ6Q_cB">
    <mxGraphModel dx="2084" dy="669" grid="1" gridSize="10" guides="1" tooltips="1" connect="1" arrows="1" fold="1" page="1" pageScale="1" pageWidth="827" pageHeight="1169" math="0" shadow="0">
      <root>
        <mxCell id="0" />
        <mxCell id="1" parent="0" />
        <mxCell id="S-nQSLdQ1cnd2gbJEzw3-36" value="AWS Cloud" style="sketch=0;outlineConnect=0;gradientColor=none;html=1;whiteSpace=wrap;fontSize=12;fontStyle=0;shape=mxgraph.aws4.group;grIcon=mxgraph.aws4.group_aws_cloud;strokeColor=#AAB7B8;fillColor=none;verticalAlign=top;align=left;spacingLeft=30;fontColor=#AAB7B8;dashed=0;" vertex="1" parent="1">
          <mxGeometry x="-270" y="4.25" width="920" height="461.5" as="geometry" />
        </mxCell>
        <mxCell id="S-nQSLdQ1cnd2gbJEzw3-41" value="Private subnet" style="points=[[0,0],[0.25,0],[0.5,0],[0.75,0],[1,0],[1,0.25],[1,0.5],[1,0.75],[1,1],[0.75,1],[0.5,1],[0.25,1],[0,1],[0,0.75],[0,0.5],[0,0.25]];outlineConnect=0;gradientColor=none;html=1;whiteSpace=wrap;fontSize=12;fontStyle=0;container=1;pointerEvents=0;collapsible=0;recursiveResize=0;shape=mxgraph.aws4.group;grIcon=mxgraph.aws4.group_security_group;grStroke=0;strokeColor=#00A4A6;fillColor=#E6F6F7;verticalAlign=top;align=left;spacingLeft=30;fontColor=#147EBA;dashed=0;" vertex="1" parent="1">
          <mxGeometry x="260" y="40" width="370" height="300" as="geometry" />
        </mxCell>
        <mxCell id="S-nQSLdQ1cnd2gbJEzw3-37" value="Public subnet" style="points=[[0,0],[0.25,0],[0.5,0],[0.75,0],[1,0],[1,0.25],[1,0.5],[1,0.75],[1,1],[0.75,1],[0.5,1],[0.25,1],[0,1],[0,0.75],[0,0.5],[0,0.25]];outlineConnect=0;gradientColor=none;html=1;whiteSpace=wrap;fontSize=12;fontStyle=0;container=1;pointerEvents=0;collapsible=0;recursiveResize=0;shape=mxgraph.aws4.group;grIcon=mxgraph.aws4.group_security_group;grStroke=0;strokeColor=#7AA116;fillColor=#F2F6E8;verticalAlign=top;align=left;spacingLeft=30;fontColor=#248814;dashed=0;" vertex="1" parent="1">
          <mxGeometry x="-220" y="40" width="460" height="390" as="geometry" />
        </mxCell>
        <mxCell id="S-nQSLdQ1cnd2gbJEzw3-30" value="" style="sketch=0;points=[[0,0,0],[0.25,0,0],[0.5,0,0],[0.75,0,0],[1,0,0],[0,1,0],[0.25,1,0],[0.5,1,0],[0.75,1,0],[1,1,0],[0,0.25,0],[0,0.5,0],[0,0.75,0],[1,0.25,0],[1,0.5,0],[1,0.75,0]];outlineConnect=0;fontColor=#232F3E;fillColor=#7AA116;strokeColor=#ffffff;dashed=0;verticalLabelPosition=bottom;verticalAlign=top;align=center;html=1;fontSize=12;fontStyle=0;aspect=fixed;shape=mxgraph.aws4.resourceIcon;resIcon=mxgraph.aws4.s3;" vertex="1" parent="S-nQSLdQ1cnd2gbJEzw3-37">
          <mxGeometry x="84" y="280" width="90" height="90" as="geometry" />
        </mxCell>
        <mxCell id="S-nQSLdQ1cnd2gbJEzw3-50" value="Springboot Application" style="rounded=1;whiteSpace=wrap;html=1;" vertex="1" parent="S-nQSLdQ1cnd2gbJEzw3-37">
          <mxGeometry x="77" y="66" width="104" height="50.5" as="geometry" />
        </mxCell>
        <mxCell id="S-nQSLdQ1cnd2gbJEzw3-8" value="" style="outlineConnect=0;dashed=0;verticalLabelPosition=bottom;verticalAlign=top;align=center;html=1;shape=mxgraph.aws3.rds;fillColor=#2E73B8;gradientColor=none;" vertex="1" parent="1">
          <mxGeometry x="50" y="161" width="72" height="81" as="geometry" />
        </mxCell>
        <mxCell id="S-nQSLdQ1cnd2gbJEzw3-6" style="edgeStyle=orthogonalEdgeStyle;rounded=0;orthogonalLoop=1;jettySize=auto;html=1;" edge="1" parent="1" source="S-nQSLdQ1cnd2gbJEzw3-5" target="S-nQSLdQ1cnd2gbJEzw3-3">
          <mxGeometry relative="1" as="geometry" />
        </mxCell>
        <mxCell id="S-nQSLdQ1cnd2gbJEzw3-5" value="devices" style="sketch=0;outlineConnect=0;gradientColor=none;fontColor=#545B64;strokeColor=none;fillColor=#879196;dashed=0;verticalLabelPosition=bottom;verticalAlign=top;align=center;html=1;fontSize=12;fontStyle=0;aspect=fixed;shape=mxgraph.aws4.illustration_devices;pointerEvents=1" vertex="1" parent="1">
          <mxGeometry x="-520" y="172" width="100" height="73" as="geometry" />
        </mxCell>
        <mxCell id="S-nQSLdQ1cnd2gbJEzw3-20" value="" style="edgeStyle=orthogonalEdgeStyle;rounded=0;orthogonalLoop=1;jettySize=auto;html=1;shape=link;" edge="1" parent="1" source="S-nQSLdQ1cnd2gbJEzw3-8" target="S-nQSLdQ1cnd2gbJEzw3-13">
          <mxGeometry relative="1" as="geometry" />
        </mxCell>
        <mxCell id="S-nQSLdQ1cnd2gbJEzw3-13" value="" style="sketch=0;points=[[0,0,0],[0.25,0,0],[0.5,0,0],[0.75,0,0],[1,0,0],[0,1,0],[0.25,1,0],[0.5,1,0],[0.75,1,0],[1,1,0],[0,0.25,0],[0,0.5,0],[0,0.75,0],[1,0.25,0],[1,0.5,0],[1,0.75,0]];outlineConnect=0;fontColor=#232F3E;fillColor=#DD344C;strokeColor=#ffffff;dashed=0;verticalLabelPosition=bottom;verticalAlign=top;align=center;html=1;fontSize=12;fontStyle=0;aspect=fixed;shape=mxgraph.aws4.resourceIcon;resIcon=mxgraph.aws4.secrets_manager;" vertex="1" parent="1">
          <mxGeometry x="290" y="60" width="78" height="78" as="geometry" />
        </mxCell>
        <mxCell id="S-nQSLdQ1cnd2gbJEzw3-7" value="" style="sketch=0;points=[[0,0,0],[0.25,0,0],[0.5,0,0],[0.75,0,0],[1,0,0],[0,1,0],[0.25,1,0],[0.5,1,0],[0.75,1,0],[1,1,0],[0,0.25,0],[0,0.5,0],[0,0.75,0],[1,0.25,0],[1,0.5,0],[1,0.75,0]];outlineConnect=0;fontColor=#232F3E;fillColor=#ED7100;strokeColor=#ffffff;dashed=0;verticalLabelPosition=bottom;verticalAlign=top;align=center;html=1;fontSize=12;fontStyle=0;aspect=fixed;shape=mxgraph.aws4.resourceIcon;resIcon=mxgraph.aws4.ec2;" vertex="1" parent="1">
          <mxGeometry x="-130" y="163.5" width="78" height="78" as="geometry" />
        </mxCell>
        <mxCell id="S-nQSLdQ1cnd2gbJEzw3-18" value="" style="edgeStyle=orthogonalEdgeStyle;rounded=0;orthogonalLoop=1;jettySize=auto;html=1;entryX=0;entryY=0.578;entryDx=0;entryDy=0;entryPerimeter=0;" edge="1" parent="1" source="S-nQSLdQ1cnd2gbJEzw3-3" target="S-nQSLdQ1cnd2gbJEzw3-7">
          <mxGeometry relative="1" as="geometry">
            <mxPoint x="-90" y="205" as="targetPoint" />
          </mxGeometry>
        </mxCell>
        <mxCell id="S-nQSLdQ1cnd2gbJEzw3-12" value="" style="edgeStyle=orthogonalEdgeStyle;rounded=0;orthogonalLoop=1;jettySize=auto;html=1;entryX=0;entryY=0.5;entryDx=0;entryDy=0;entryPerimeter=0;" edge="1" parent="1" source="S-nQSLdQ1cnd2gbJEzw3-7" target="S-nQSLdQ1cnd2gbJEzw3-8">
          <mxGeometry relative="1" as="geometry">
            <mxPoint x="157" y="164" as="targetPoint" />
          </mxGeometry>
        </mxCell>
        <mxCell id="S-nQSLdQ1cnd2gbJEzw3-10" value="" style="edgeStyle=orthogonalEdgeStyle;rounded=0;orthogonalLoop=1;jettySize=auto;html=1;shape=link;" edge="1" parent="1" source="S-nQSLdQ1cnd2gbJEzw3-8" target="S-nQSLdQ1cnd2gbJEzw3-9">
          <mxGeometry relative="1" as="geometry" />
        </mxCell>
        <mxCell id="S-nQSLdQ1cnd2gbJEzw3-9" value="" style="outlineConnect=0;dashed=0;verticalLabelPosition=bottom;verticalAlign=top;align=center;html=1;shape=mxgraph.aws3.rds_db_instance_read_replica;fillColor=#2E73B8;gradientColor=none;" vertex="1" parent="1">
          <mxGeometry x="110" y="50" width="49.5" height="66" as="geometry" />
        </mxCell>
        <mxCell id="S-nQSLdQ1cnd2gbJEzw3-3" value="" style="sketch=0;outlineConnect=0;fontColor=#232F3E;gradientColor=none;fillColor=#8C4FFF;strokeColor=none;dashed=0;verticalLabelPosition=bottom;verticalAlign=top;align=center;html=1;fontSize=12;fontStyle=0;aspect=fixed;pointerEvents=1;shape=mxgraph.aws4.internet_gateway;" vertex="1" parent="1">
          <mxGeometry x="-310" y="168.5" width="80" height="80" as="geometry" />
        </mxCell>
        <mxCell id="S-nQSLdQ1cnd2gbJEzw3-23" value="" style="sketch=0;points=[[0,0,0],[0.25,0,0],[0.5,0,0],[0.75,0,0],[1,0,0],[0,1,0],[0.25,1,0],[0.5,1,0],[0.75,1,0],[1,1,0],[0,0.25,0],[0,0.5,0],[0,0.75,0],[1,0.25,0],[1,0.5,0],[1,0.75,0]];outlineConnect=0;fontColor=#232F3E;fillColor=#01A88D;strokeColor=#ffffff;dashed=0;verticalLabelPosition=bottom;verticalAlign=top;align=center;html=1;fontSize=12;fontStyle=0;aspect=fixed;shape=mxgraph.aws4.resourceIcon;resIcon=mxgraph.aws4.database_migration_service;" vertex="1" parent="1">
          <mxGeometry x="282" y="241.5" width="78" height="78" as="geometry" />
        </mxCell>
        <mxCell id="S-nQSLdQ1cnd2gbJEzw3-26" style="edgeStyle=orthogonalEdgeStyle;rounded=0;orthogonalLoop=1;jettySize=auto;html=1;entryX=0;entryY=0.5;entryDx=0;entryDy=0;entryPerimeter=0;exitX=1;exitY=0.78;exitDx=0;exitDy=0;exitPerimeter=0;" edge="1" parent="1" source="S-nQSLdQ1cnd2gbJEzw3-8" target="S-nQSLdQ1cnd2gbJEzw3-23">
          <mxGeometry relative="1" as="geometry">
            <mxPoint x="90" y="280" as="sourcePoint" />
            <Array as="points">
              <mxPoint x="170" y="212" />
              <mxPoint x="170" y="281" />
            </Array>
          </mxGeometry>
        </mxCell>
        <mxCell id="S-nQSLdQ1cnd2gbJEzw3-27" value="RDS for MySQL" style="rounded=1;whiteSpace=wrap;html=1;" vertex="1" parent="1">
          <mxGeometry x="40" y="248.5" width="104" height="50.5" as="geometry" />
        </mxCell>
        <mxCell id="S-nQSLdQ1cnd2gbJEzw3-28" value="" style="sketch=0;points=[[0,0,0],[0.25,0,0],[0.5,0,0],[0.75,0,0],[1,0,0],[0,1,0],[0.25,1,0],[0.5,1,0],[0.75,1,0],[1,1,0],[0,0.25,0],[0,0.5,0],[0,0.75,0],[1,0.25,0],[1,0.5,0],[1,0.75,0]];outlineConnect=0;fontColor=#232F3E;fillColor=#7AA116;strokeColor=#ffffff;dashed=0;verticalLabelPosition=bottom;verticalAlign=top;align=center;html=1;fontSize=12;fontStyle=0;aspect=fixed;shape=mxgraph.aws4.resourceIcon;resIcon=mxgraph.aws4.s3;" vertex="1" parent="1">
          <mxGeometry x="510" y="242" width="78" height="78" as="geometry" />
        </mxCell>
        <mxCell id="S-nQSLdQ1cnd2gbJEzw3-29" style="edgeStyle=orthogonalEdgeStyle;rounded=0;orthogonalLoop=1;jettySize=auto;html=1;entryX=0;entryY=0.5;entryDx=0;entryDy=0;entryPerimeter=0;" edge="1" parent="1" source="S-nQSLdQ1cnd2gbJEzw3-23" target="S-nQSLdQ1cnd2gbJEzw3-28">
          <mxGeometry relative="1" as="geometry" />
        </mxCell>
        <mxCell id="S-nQSLdQ1cnd2gbJEzw3-48" value="" style="edgeStyle=orthogonalEdgeStyle;rounded=0;orthogonalLoop=1;jettySize=auto;html=1;" edge="1" parent="1" source="S-nQSLdQ1cnd2gbJEzw3-30" target="S-nQSLdQ1cnd2gbJEzw3-7">
          <mxGeometry relative="1" as="geometry" />
        </mxCell>
        <mxCell id="S-nQSLdQ1cnd2gbJEzw3-45" value="Logs - Database Change" style="text;html=1;align=center;verticalAlign=middle;resizable=0;points=[];autosize=1;strokeColor=none;fillColor=none;" vertex="1" parent="1">
          <mxGeometry x="460" y="218.5" width="160" height="30" as="geometry" />
        </mxCell>
        <mxCell id="S-nQSLdQ1cnd2gbJEzw3-49" value="Angular - Web Static Page" style="rounded=1;whiteSpace=wrap;html=1;" vertex="1" parent="1">
          <mxGeometry x="-42" y="350" width="104" height="50.5" as="geometry" />
        </mxCell>
      </root>
    </mxGraphModel>
  </diagram>
</mxfile>
